<svg id="eVhzf6mu7NS1" xmlns="http://www.w3.org/2000/svg" xmlns:xlink="http://www.w3.org/1999/xlink" viewBox="0 0 192 192" shape-rendering="geometricPrecision" text-rendering="geometricPrecision"><path d="M302.001769,21.58578c91.028673-22.074435,145.342124,22.684947,158.142199,126.839314c11.68709,95.097692,8.435496,190.075046,1.227848,285.241749-4.092777,54.04012-6.167159,108.249824-9.452717,167.865929c17.589389-41.921456,32.346298-79.905954,49.22198-116.815785C567.348371,339.910624,644.255186,201.487997,727.407942,66.819123c16.285518-26.374874,37.295105-40.431507,68.021656-34.735922c21.85077,4.050322,31.576955,20.247005,24.196293,41.686212-51.842439,150.591623-78.447523,307.509488-104.804413,464.462245-14.876006,88.585226-23.943836,177.952132-30.188145,267.634035-2.001032,28.739186,1.87783,56.804368,10.278701,84.299837c7.025476,22.99419,1.717178,29.213185-21.178075,26.202015-39.878583-5.244782-69.049233-36.294181-74.461429-82.098242-9.824891-83.148649.098238-165.435127,13.226441-247.223521c16.912933-105.367405,42.707383-208.72546,67.774011-318.533949-21.903108,30.998681-35.606546,60.417304-49.76442,89.383894-69.813809,142.83756-131.357428,289.499863-182.517482,440.924659-8.089141,23.942515-24.377799,30.244646-46.011006,18.476661-25.589717-13.920179-32.905562-39.039931-36.633305-66.337927-8.859382-64.876569-3.637803-129.812912-1.670658-194.842361c3.330726-110.10691,13.807921-219.97355,7.044902-331.876366-16.118509,39.59835-32.531884,79.066894-48.303225,118.818113-60.362642,152.142041-117.187832,305.880522-184.762537,454.763491-14.270141,31.440343-31.253675,61.290538-52.277607,88.336586-7.513388,9.665453-15.907221,18.701088-26.852566,24.167922-10.124579,5.056616-19.459185,8.400825-30.186163-1.493048-11.266573-10.391314-4.882079-19.302485-.900594-28.532978c42.358482-98.204003,85.27758-196.140793,127.384703-294.463624c61.943217-144.641355,123.384204-289.521502,184.923672-434.354368c4.835066-11.379208,9.480751-22.950661,12.983176-34.835333c9.512108-32.277026-.291843-44.315408-32.116915-37.305939-52.091832,11.473224-75.128387,54.182509-92.479511,101.07942-12.459192,33.674811-14.154423,69.401056-13.389324,105.315484.486342,22.830039-6.373635,26.851967-25.923257,16.565432-38.220588-20.110706-59.076058-80.560375-42.679294-134.086355C170.401187,89.021528,228.157983,46.882983,302.001769,21.58578M125.032094,766.446575c5.53015-12.03896,11.580153-23.846716,16.512563-36.151508C216.252608,543.92181,290.789155,357.472321,365.488422,171.095182c3.467537-8.651607,5.035028-18.953272,16.144058-24.559128c1.121394,4.777093,2.445153,8.710636,2.935641,12.756269c11.344424,93.571568-1.208621,186.839946-3.683896,280.213634-2.526724,95.317666-9.361344,190.535328-6.295443,285.962061.68394,21.287012,3.489671,42.901669,14.998004,61.384945c5.078448,8.156236,12.225033,15.696121,22.741811,14.618434c10.243188-1.049674,12.300898-10.460325,15.283409-18.981119c26.64261-76.115427,55.092062-151.490783,86.440057-225.586733C564.705192,437.176675,615.732267,317.590926,686.35361,208.829617c4.946983-7.618573,7.919454-18.182415,18.911796-19.624788c6.61787,6.601141,2.534783,13.323653,1.022302,19.966995-38.224058,167.895307-84.807204,334.041031-96.457119,507.520673-2.866092,42.679206-5.464844,85.560381,3.982603,127.722299c7.993662,35.673837,28.827943,50.87987,58.235617,45.389434-18.689659-143.680822,11.917642-282.946892,33.714758-422.831021c22.020421-141.318051,51.825691-280.819933,95.509482-416.213262-26.851646-13.643424-41.517996-8.472705-58.745724,18.510851-52.925764,82.897043-101.870861,168.332526-148.649705,255.23064-62.346535,115.817438-118.457835,234.450334-154.360954,362.700695-1.19265,4.260196-3.112152,8.393642-9.884358,7.358013-4.357755-4.250723-3.2207-10.592133-2.927348-16.592749c2.042476-41.777108,3.171893-83.635509,6.425973-125.309101c9.013287-115.428785,17.15442-230.904401,13.565581-346.806736-1.042542-33.667687-4.771717-67.396175-13.606323-100.169926C416.45448,43.96813,380.274254,19.843481,320.233771,32.12065c-56.305718,11.513457-101.986507,42.155421-137.560934,89.214042-17.805148,23.553026-29.531593,50.542277-29.217845,81.055264.330745,32.166879,5.49859,63.105904,38.196187,84.219678.669265-10.828769,1.322712-17.639956,1.474528-24.463533c1.044594-46.956797,10.020858-92.051305,30.469307-133.93454c20.255575-41.488165,51.582599-67.633592,96.909355-72.430028c37.537486-3.972164,54.651936,15.825505,46.346583,54.634741-2.583823,12.073754-6.74216,23.968344-11.573232,35.284932-86.06548,201.606427-172.341689,403.113111-258.583426,604.636092-18.955877,44.294593-37.953725,88.569341-56.932239,132.853321c2.286787,1.389248,4.573575,2.778576,6.860367,4.167909c37.661375-29.761419,55.786455-74.620501,78.409672-120.911953Z"/></svg>
