<?xml version="1.0" standalone="yes"?>
<svg xmlns="http://www.w3.org/2000/svg" width="200" height="200">
<path style="fill:#e0b97d; stroke:none;" d="M104 36C100.264 34.5246 90.1563 26.0581 86.3333 28.7222C83.9772 30.3641 85.1773 34.742 85.6111 37C86.6859 42.5939 86.844 63.0229 93 64L93 65L91 65L91 66C102.281 64.5743 113.633 65 125 65C128.919 65 136.105 66.3415 139.411 63.821C144.157 60.2029 144.885 41.8239 145.542 36C145.834 33.4053 145.547 30.3978 142.852 29.1358C138.299 27.0037 129.811 33.7543 126 36C124.581 31.7709 120.104 16.0679 114.198 16.9213C109.102 17.6576 105.431 31.7965 104 36M116 29C117.79 33.3048 120.841 44.2193 126.579 44.4429C129.838 44.5699 133.938 41.1148 137 40L134 57L96 57L93 38C99.4079 40.9953 103.77 45.6901 111 43L116 29M135 41L136 42L135 41M84 65L84 66L88 66L84 65M81.6667 66.3333L82.3333 66.6667L81.6667 66.3333M95 66L96 67L95 66M97 66C107.998 92.5417 104.581 123.668 101 152L102 152C105.059 142.593 104.608 132.845 105.039 123C105.818 105.227 111.104 79.8737 97 66M72 72L80 68L72 72M144 70L148 68L144 70M151 67L151 68L154 68L151 67M142 69L143 70L142 69M154 69C142.982 93.8555 138.429 125.07 135.925 152C135.032 161.603 133.147 172.868 137 182L127 179C130.359 182.905 133.976 184.367 139 183C134.813 169.792 137.499 155.39 139.576 142C143.445 117.051 150.339 93.4693 156 69L154 69M69 102L63 96L62 96L71 104C72.0577 94.5311 71.0685 85.2609 78.5185 77.8194C81.9535 74.3884 87.7446 70.9986 91 76C92.7513 67.6706 79.4022 72.0733 76.3287 75.2137C69.2843 82.4115 69 92.6163 69 102M143 71L138 79L139 79L143 71M70 72L65 78L70 72M89 77L90 80L91 80L89 77M64 79L61 81L62 84L63 84L64 79M88 79L89 80L88 79M137 80L136 82L137 80M89 81L90 82L89 81M88 83L89 84L88 83M135 83L134 85L135 83M93 84C85.0801 107.267 74.4356 130.631 64.2307 153C59.3304 163.741 55.3437 175.371 45 182L47 176L46 176C44.3685 180.896 46.0797 185.506 51.6713 181.432C57.9576 176.852 61.4147 166.876 64.3333 160C71.6733 142.707 79.2637 125.522 86.061 108C88.6537 101.316 95.9268 91.1925 93 84M61 85L61 89L62 89L61 85M87 85L86 89L87 89L87 85M133 86L134 87L133 86M130 88L130 89L133 89L133 88L130 88M138 89C126.344 106.292 117.451 125.723 109.603 145C107.54 150.069 104.472 165.377 99.5046 167.94C95.1401 170.191 93.3055 162.742 93 160L92 160L92 167C94.5479 168.622 99.0834 172.789 102.157 170.164C106.802 166.195 109.121 153.693 111.4 148C117.99 131.539 127.191 116.268 134 100L135 103L136 103L135 98C138.176 97.4978 138.846 91.8035 138 89M61 90L61 95L62 95L61 90M85 90L86 91L85 90M130 91L127 97L128 97L130 91M84 92L85 93L84 92M83 94L81 100L82 100L83 94M126 98L123 104L124 104L126 98M80 101L81 102L80 101M93 101L93 115L94 115L93 101M79 103L78 107L79 107L79 103M134 104L134 107L135 107L134 104M122 105L123 106L122 105M121 107L119 111L120 111L121 107M77 108L78 109L77 108M133 108L133 111L134 111L133 108M76 110L77 111L76 110M75 112L72 120L73 120L75 112M118 112L119 113L118 112M132 112L132 115L133 115L132 112M117 114L115 119L116 119L117 114M131 116L131 119L132 119L131 116M114 120L112 125L113 125L114 120M71 121L72 122L71 121M130 121L130 124L131 124L130 121M92 122L92 139L93 139L92 122M70 123L68 129L69 129L70 123M129 125L129 128L130 128L129 125M111 126L112 127L111 126M110 128L111 129L110 128M128 129L128 133L129 133L128 129M67 130L68 131L67 130M109 130L107 136L108 136L109 130M66 132L67 133L66 132M65 134L63 140L64 140L65 134M127 134L127 138L128 138L127 134M106 137L105 141L106 141L106 137M126 140L126 144L127 144L126 140M62 141L61 144L62 144L62 141M60 145L58 151L59 151L60 145M125 146L125 152L126 152L125 146M91 147L91 155L92 155L91 147M57 152L58 153L57 152M56 154L57 155L56 154M54 156L53 162L54 162L56 156L54 156M124 156L124 172L125 172L124 156M52 163L53 164L52 163M51 165L52 166L51 165M50 167L48 173L49 173L50 167M47 174L48 175L47 174M125 174L126 178L127 178L125 174z"/>
</svg>
