<?xml version="1.0" standalone="yes"?>
<svg xmlns="http://www.w3.org/2000/svg" width="200" height="200">
<path style="fill:#ede2d0; stroke:none;" d="M112 17L112 18C115.844 18.1643 117.201 19.6672 119 23C119.597 18.5366 116.047 16.4229 112 17z"/>
<path style="fill:#fba017; stroke:none;" d="M104 37L86 29C86.0201 36.2764 86.209 56.1058 91.5995 61.3966C94.518 64.2611 101.274 63 105 63L139 63L143.246 38L141.682 29.8164L125 37C124.338 33.2875 118.89 15.5741 113.403 18.1759C108.874 20.3237 105.833 32.5328 104 37z"/>
<path style="fill:#ede2d0; stroke:none;" d="M111 19L112 20L111 19M110 21L108 27L109 27L110 21M120 24L123 32L124 32L120 24M114 26C110.113 37.4159 108.185 44.24 96 39L96 40C101.165 43.1577 105.178 46.009 111 43L115 29L116 29L118 35L119 35L114 26M85 36L86 36L86 29L105 36C97.679 32.9819 85.1607 22.4381 85 36M107 28L108 29L107 28M137 30L137 31C148.909 27.5162 139.887 56.0181 139 63L103 63C96.1901 62.9996 90.6109 63.0749 90 55L89 55L90 64L93 66C103.415 63.5204 115.331 65 126 65C129.709 65 136.274 66.213 139.411 63.821C141.791 62.0064 141.798 57.6855 142.247 55C143.322 48.5695 150.934 23.7417 137 30M106 30L105 34L106 34L106 30M126 36L125 33L124 33L125 37L136 32L126 36M119 36L120 37L119 36M86 37L86 41L87 41L86 37M92 37L95 58L135 58L135 53L134 53L134 57L96 57L94 37L92 37M121 38L120 38C122.966 46.6449 128.461 44.8476 135 41L136 46L137 46L135 40L138 38C131.158 37.9902 125.599 46.3153 121 38M94 38L93 39L94 38M87 43L87 47L88 47L87 43M135 48L135 52L136 52L135 48M88 49L88 54L89 54L88 49M84 65L85 66L84 65z"/>
<path style="fill:#a8a6a2; stroke:none;" d="M85.6667 65.3333L86.3333 65.6667L85.6667 65.3333z"/>
<path style="fill:#605f5c; stroke:none;" d="M87 65L87 66L91 66L87 65z"/>
<path style="fill:#a8a6a2; stroke:none;" d="M91.6667 65.3333L92.3333 65.6667L91.6667 65.3333M81 66L82 67L81 66z"/>
<path style="fill:#605f5c; stroke:none;" d="M82.6667 66.3333L83.3333 66.6667L82.6667 66.3333M94 66L95 67L94 66z"/>
<path style="fill:#a8a6a2; stroke:none;" d="M95 66L96 67L95 66z"/>
<path style="fill:#ede2d0; stroke:none;" d="M97 66L101 71L97 66M78 67L79 68L78 67z"/>
<path style="fill:#a8a6a2; stroke:none;" d="M79 67L80 68L79 67z"/>
<path style="fill:#605f5c; stroke:none;" d="M96 67L97 68L96 67z"/>
<path style="fill:#ede2d0; stroke:none;" d="M146 67L144 70L146 67z"/>
<path style="fill:#a8a6a2; stroke:none;" d="M147 67L148 68L147 67z"/>
<path style="fill:#605f5c; stroke:none;" d="M148 67L148 68L152 68L148 67z"/>
<path style="fill:#a8a6a2; stroke:none;" d="M152 67L153 68L152 67z"/>
<path style="fill:#ede2d0; stroke:none;" d="M153 67L154 68L153 67M76 68L77 69L76 68z"/>
<path style="fill:#605f5c; stroke:none;" d="M77 68L78 69L77 68M153 68L153 71L154 71L153 68z"/>
<path style="fill:#ede2d0; stroke:none;" d="M74 69L75 70L74 69z"/>
<path style="fill:#605f5c; stroke:none;" d="M75 69L76 70L75 69z"/>
<path style="fill:#ede2d0; stroke:none;" d="M142 69L143 70L142 69M154 69L156 71L156 69L154 69z"/>
<path style="fill:#a8a6a2; stroke:none;" d="M73 70L74 71L73 70z"/>
<path style="fill:#605f5c; stroke:none;" d="M85 70L85 71L88 71L85 70M99 70L100 71L99 70M144 70L143 72L144 70z"/>
<path style="fill:#a8a6a2; stroke:none;" d="M154 70C148.733 79.995 146.826 92.0576 144.35 103C138.842 127.34 135 152.047 135 177L136 177C136 151.66 140.945 126.726 146.211 102C148.083 93.2061 155.79 78.5242 154 70z"/>
<path style="fill:#605f5c; stroke:none;" d="M72 71L71 73L72 71M81.6667 71.3333L82.3333 71.6667L81.6667 71.3333z"/>
<path style="fill:#a8a6a2; stroke:none;" d="M69 103L70 103C70.0089 89.5983 74.2718 73.3836 90 72C72.3944 64.6813 69 92.1669 69 103z"/>
<path style="fill:#605f5c; stroke:none;" d="M90 71L91 72L90 71z"/>
<path style="fill:#a8a6a2; stroke:none;" d="M100 71L101 72L100 71z"/>
<path style="fill:#ede2d0; stroke:none;" d="M70 72L69 74L70 72z"/>
<path style="fill:#605f5c; stroke:none;" d="M79 72L78 74L79 72z"/>
<path style="fill:#ede2d0; stroke:none;" d="M85 72L85 73L91 73L85 72M101 72L104 84L105 84L101 72z"/>
<path style="fill:#a8a6a2; stroke:none;" d="M142 72L143 73L142 72z"/>
<path style="fill:#605f5c; stroke:none;" d="M152 72L153 73L152 72z"/>
<path style="fill:#ede2d0; stroke:none;" d="M154.333 72.6667L154.667 73.3333L154.333 72.6667M76 79L84 74L76 79z"/>
<path style="fill:#a8a6a2; stroke:none;" d="M91 73L91 76L92 76L91 73M101 73L102 74L101 73z"/>
<path style="fill:#ede2d0; stroke:none;" d="M141 73L142 74L141 73z"/>
<path style="fill:#a8a6a2; stroke:none;" d="M68 74L69 75L68 74z"/>
<path style="fill:#605f5c; stroke:none;" d="M101 74L102 75L101 74M141 74L142 75L141 74z"/>
<path style="fill:#ede2d0; stroke:none;" d="M67 75L65 78L67 75z"/>
<path style="fill:#a8a6a2; stroke:none;" d="M102.333 75.6667L102.667 76.3333L102.333 75.6667M140 75L141 76L140 75z"/>
<path style="fill:#605f5c; stroke:none;" d="M151 75L152 76L151 75z"/>
<path style="fill:#ede2d0; stroke:none;" d="M153.333 75.6667L153.667 76.3333L153.333 75.6667z"/>
<path style="fill:#605f5c; stroke:none;" d="M91.3333 76.6667L91.6667 77.3333L91.3333 76.6667z"/>
<path style="fill:#ede2d0; stroke:none;" d="M139 76L140 77L139 76z"/>
<path style="fill:#605f5c; stroke:none;" d="M74 77L75 78L74 77z"/>
<path style="fill:#ede2d0; stroke:none;" d="M89 77L91 79L89 77z"/>
<path style="fill:#605f5c; stroke:none;" d="M102.333 77.6667L102.667 78.3333L102.333 77.6667M139 77L140 78L139 77M65 78L66 79L65 78z"/>
<path style="fill:#a8a6a2; stroke:none;" d="M138 78L139 79L138 78z"/>
<path style="fill:#605f5c; stroke:none;" d="M150 78L151 79L150 78z"/>
<path style="fill:#ede2d0; stroke:none;" d="M152.333 78.6667L152.667 79.3333L152.333 78.6667z"/>
<path style="fill:#a8a6a2; stroke:none;" d="M64 79L65 80L64 79z"/>
<path style="fill:#ede2d0; stroke:none;" d="M88 79L89 80L88 79z"/>
<path style="fill:#a8a6a2; stroke:none;" d="M90 79L91 80L90 79M103 79L103 82L104 82L103 79z"/>
<path style="fill:#ede2d0; stroke:none;" d="M63 80L64 81L63 80z"/>
<path style="fill:#605f5c; stroke:none;" d="M72 80L73 81L72 80z"/>
<path style="fill:#ede2d0; stroke:none;" d="M75 80L74 82L75 80z"/>
<path style="fill:#a8a6a2; stroke:none;" d="M137 80L138 81L137 80z"/>
<path style="fill:#ede2d0; stroke:none;" d="M61 81L63 83L61 81z"/>
<path style="fill:#605f5c; stroke:none;" d="M63 81L64 82L63 81z"/>
<path style="fill:#a8a6a2; stroke:none;" d="M89 81L90 82L89 81z"/>
<path style="fill:#ede2d0; stroke:none;" d="M136 81L137 82L136 81z"/>
<path style="fill:#605f5c; stroke:none;" d="M149.333 81.6667L149.667 82.3333L149.333 81.6667z"/>
<path style="fill:#ede2d0; stroke:none;" d="M151 81L150 87L151 87L151 81z"/>
<path style="fill:#605f5c; stroke:none;" d="M71 82L72 83L71 82M89 82L90 83L89 82M103 82L103 86L104 86L103 82M136 82L137 83L136 82z"/>
<path style="fill:#a8a6a2; stroke:none;" d="M62 83L63 84L62 83z"/>
<path style="fill:#ede2d0; stroke:none;" d="M73 83L72 88L73 88L73 83z"/>
<path style="fill:#a8a6a2; stroke:none;" d="M88 83L89 84L88 83z"/>
<path style="fill:#605f5c; stroke:none;" d="M93 83L94 84L93 83z"/>
<path style="fill:#a8a6a2; stroke:none;" d="M135 83L136 84L135 83z"/>
<path style="fill:#605f5c; stroke:none;" d="M62 84L63 85L62 84M88 84L89 85L88 84z"/>
<path style="fill:#a8a6a2; stroke:none;" d="M93 84C83.0938 118.652 64.3948 152.068 47 183C55.5043 179.023 59.4993 169.167 63.1389 161C70.795 143.821 77.8368 126.384 85.0108 109C87.7203 102.434 95.5099 91.0783 93 84M104 84L102 149L103 149L105.039 105L104 84z"/>
<path style="fill:#ede2d0; stroke:none;" d="M134 84L135 85L134 84z"/>
<path style="fill:#605f5c; stroke:none;" d="M148.333 84.6667L148.667 85.3333L148.333 84.6667z"/>
<path style="fill:#ede2d0; stroke:none;" d="M61 85L62 86L61 85z"/>
<path style="fill:#605f5c; stroke:none;" d="M70.3333 85.6667L70.6667 86.3333L70.3333 85.6667z"/>
<path style="fill:#ede2d0; stroke:none;" d="M87 85L88 86L87 85z"/>
<path style="fill:#605f5c; stroke:none;" d="M92.3333 85.6667L92.6667 86.3333L92.3333 85.6667z"/>
<path style="fill:#ede2d0; stroke:none;" d="M105 85L105 98L106 98L105 85z"/>
<path style="fill:#605f5c; stroke:none;" d="M134 85L135 86L134 85z"/>
<path style="fill:#a8a6a2; stroke:none;" d="M61.3333 86.6667L61.6667 87.3333L61.3333 86.6667z"/>
<path style="fill:#605f5c; stroke:none;" d="M87 86L88 87L87 86z"/>
<path style="fill:#a8a6a2; stroke:none;" d="M133 86L134 87L133 86z"/>
<path style="fill:#ede2d0; stroke:none;" d="M86 87L87 88L86 87z"/>
<path style="fill:#605f5c; stroke:none;" d="M94 87L94 98L95 98L94 87M133 87L134 88L133 87M61 88L61 91L62 91L61 88M69 88L69 91L70 91L69 88z"/>
<path style="fill:#a8a6a2; stroke:none;" d="M86 88L87 89L86 88z"/>
<path style="fill:#605f5c; stroke:none;" d="M91 88L92 89L91 88z"/>
<path style="fill:#ede2d0; stroke:none;" d="M93.3333 88.6667L93.6667 89.3333L93.3333 88.6667M130 88L132 90L130 88z"/>
<path style="fill:#a8a6a2; stroke:none;" d="M132 88L133 89L132 88z"/>
<path style="fill:#605f5c; stroke:none;" d="M147.333 88.6667L147.667 89.3333L147.333 88.6667z"/>
<path style="fill:#ede2d0; stroke:none;" d="M149 88L149 91L150 91L149 88M71 89L71 92L72 92L71 89z"/>
<path style="fill:#605f5c; stroke:none;" d="M138 89L136 92C138.259 91.5379 139.212 91.145 138 89z"/>
<path style="fill:#a8a6a2; stroke:none;" d="M85 90L86 91L85 90z"/>
<path style="fill:#605f5c; stroke:none;" d="M90 90L91 91L90 90M131 90L132 91L131 90z"/>
<path style="fill:#ede2d0; stroke:none;" d="M60 91L61 92L60 91z"/>
<path style="fill:#a8a6a2; stroke:none;" d="M61.3333 91.6667L61.6667 92.3333L61.3333 91.6667z"/>
<path style="fill:#605f5c; stroke:none;" d="M85 91L86 92L85 91z"/>
<path style="fill:#ede2d0; stroke:none;" d="M92 91L93 92L92 91z"/>
<path style="fill:#a8a6a2; stroke:none;" d="M130 91L131 92L130 91M137 91C126.181 107.05 117.907 125.112 110.603 143C107.23 151.262 104.791 164.069 98 170L98 171C104.811 168.951 106.752 158.1 109.2 152C116.698 133.313 128.152 115.704 135 97L136 99L137 99L137 91M84 92L85 93L84 92z"/>
<path style="fill:#605f5c; stroke:none;" d="M89.3333 92.6667L89.6667 93.3333L89.3333 92.6667z"/>
<path style="fill:#ede2d0; stroke:none;" d="M129 92L130 93L129 92z"/>
<path style="fill:#605f5c; stroke:none;" d="M130 92L131 93L130 92M146.333 92.6667L146.667 93.3333L146.333 92.6667z"/>
<path style="fill:#ede2d0; stroke:none;" d="M148 92L148 95L149 95L148 92M61.3333 93.6667L61.6667 94.3333L61.3333 93.6667M70 93L70 103L66 101L66 102L71 104L70 93z"/>
<path style="fill:#605f5c; stroke:none;" d="M84 93L85 94L84 93z"/>
<path style="fill:#ede2d0; stroke:none;" d="M91.3333 93.6667L91.6667 94.3333L91.3333 93.6667z"/>
<path style="fill:#a8a6a2; stroke:none;" d="M129 93L130 94L129 93z"/>
<path style="fill:#605f5c; stroke:none;" d="M135 93L134 95L135 93z"/>
<path style="fill:#ede2d0; stroke:none;" d="M83 94L84 95L83 94M128 94L129 95L128 94z"/>
<path style="fill:#605f5c; stroke:none;" d="M137.333 94.6667L137.667 95.3333L137.333 94.6667M62 95L63 96L62 95M83 95L84 96L83 95M88 95L89 96L88 95M128 95L129 96L128 95z"/>
<path style="fill:#ede2d0; stroke:none;" d="M136.333 95.6667L136.667 96.3333L136.333 95.6667M62 96L64 99L62 96z"/>
<path style="fill:#605f5c; stroke:none;" d="M68 96L69 97L68 96z"/>
<path style="fill:#ede2d0; stroke:none;" d="M82 96L83 97L82 96M90 96L91 97L90 96M127 96L128 97L127 96z"/>
<path style="fill:#605f5c; stroke:none;" d="M133 96L132 98L133 96M145.333 96.6667L145.667 97.3333L145.333 96.6667z"/>
<path style="fill:#ede2d0; stroke:none;" d="M147 96L147 99L148 99L147 96z"/>
<path style="fill:#605f5c; stroke:none;" d="M63 97L64 98L63 97z"/>
<path style="fill:#a8a6a2; stroke:none;" d="M82 97L83 98L82 97z"/>
<path style="fill:#605f5c; stroke:none;" d="M87 97L88 98L87 97M127 97L128 98L127 97z"/>
<path style="fill:#ede2d0; stroke:none;" d="M135 97L136 98L135 97M81 98L82 99L81 98M89 98L90 99L89 98z"/>
<path style="fill:#a8a6a2; stroke:none;" d="M126 98L127 99L126 98M64 99L66 101L64 99M81 99L82 100L81 99z"/>
<path style="fill:#ede2d0; stroke:none;" d="M125 99L126 100L125 99z"/>
<path style="fill:#605f5c; stroke:none;" d="M131 99L132 100L131 99z"/>
<path style="fill:#ede2d0; stroke:none;" d="M133 100L133 101L136 101L133 100z"/>
<path style="fill:#605f5c; stroke:none;" d="M136 99L137 100L136 99M81 100L82 101L81 100M86 100L87 101L86 100z"/>
<path style="fill:#ede2d0; stroke:none;" d="M88.3333 100.667L88.6667 101.333L88.3333 100.667M105 100L105 118L106 118L105 100z"/>
<path style="fill:#a8a6a2; stroke:none;" d="M125 100L126 101L125 100z"/>
<path style="fill:#605f5c; stroke:none;" d="M144 100L144 103L145 103L144 100z"/>
<path style="fill:#ede2d0; stroke:none;" d="M146 100L146 104L147 104L146 100z"/>
<path style="fill:#605f5c; stroke:none;" d="M67.6667 101.333L68.3333 101.667L67.6667 101.333z"/>
<path style="fill:#a8a6a2; stroke:none;" d="M80 101L81 102L80 101z"/>
<path style="fill:#ede2d0; stroke:none;" d="M93 101L93 106L94 106L93 101M124 101L125 102L124 101z"/>
<path style="fill:#605f5c; stroke:none;" d="M130 101L131 102L130 101z"/>
<path style="fill:#a8a6a2; stroke:none;" d="M135 101L136 102L135 101z"/>
<path style="fill:#605f5c; stroke:none;" d="M80 102L81 103L80 102M85 102L86 103L85 102M124 102L125 103L124 102z"/>
<path style="fill:#ede2d0; stroke:none;" d="M132 102L133 103L132 102z"/>
<path style="fill:#605f5c; stroke:none;" d="M135.333 102.667L135.667 103.333L135.333 102.667z"/>
<path style="fill:#ede2d0; stroke:none;" d="M79 103L80 104L79 103M87 103L88 104L87 103M123 103L124 104L123 103z"/>
<path style="fill:#605f5c; stroke:none;" d="M129 103L127 107L128 107L129 103M79 104L80 105L79 104M84.3333 104.667L84.6667 105.333L84.3333 104.667M123 104L124 105L123 104z"/>
<path style="fill:#ede2d0; stroke:none;" d="M131 104L129 108L130 108L131 104M134 104L135 105L134 104M78 105L79 106L78 105M86 105L87 106L86 105z"/>
<path style="fill:#a8a6a2; stroke:none;" d="M122 105L123 106L122 105M134.333 105.667L134.667 106.333L134.333 105.667z"/>
<path style="fill:#605f5c; stroke:none;" d="M143.333 105.667L143.667 106.333L143.333 105.667z"/>
<path style="fill:#ede2d0; stroke:none;" d="M145 105L145 108L146 108L145 105z"/>
<path style="fill:#a8a6a2; stroke:none;" d="M78 106L79 107L78 106M93 106L93 114L94 114L93 106z"/>
<path style="fill:#605f5c; stroke:none;" d="M122 106L123 107L122 106M83 107L84 108L83 107z"/>
<path style="fill:#ede2d0; stroke:none;" d="M85.3333 107.667L85.6667 108.333L85.3333 107.667z"/>
<path style="fill:#a8a6a2; stroke:none;" d="M121 107L122 108L121 107z"/>
<path style="fill:#605f5c; stroke:none;" d="M134 107L135 108L134 107z"/>
<path style="fill:#a8a6a2; stroke:none;" d="M77 108L78 109L77 108z"/>
<path style="fill:#ede2d0; stroke:none;" d="M120 108L121 109L120 108z"/>
<path style="fill:#605f5c; stroke:none;" d="M126 108L127 109L126 108z"/>
<path style="fill:#ede2d0; stroke:none;" d="M133 108L134 109L133 108z"/>
<path style="fill:#605f5c; stroke:none;" d="M77 109L78 110L77 109M82 109L83 110L82 109M120 109L121 110L120 109z"/>
<path style="fill:#ede2d0; stroke:none;" d="M128 109L129 110L128 109z"/>
<path style="fill:#a8a6a2; stroke:none;" d="M133.333 109.667L133.667 110.333L133.333 109.667M76 110L77 111L76 110z"/>
<path style="fill:#ede2d0; stroke:none;" d="M84 110L83 114L84 114L84 110M119 110L120 111L119 110z"/>
<path style="fill:#605f5c; stroke:none;" d="M125 110L126 111L125 110M142.333 110.667L142.667 111.333L142.333 110.667z"/>
<path style="fill:#ede2d0; stroke:none;" d="M144 110L144 113L145 113L144 110z"/>
<path style="fill:#605f5c; stroke:none;" d="M76 111L77 112L76 111M119 111L120 112L119 111z"/>
<path style="fill:#ede2d0; stroke:none;" d="M127 111L128 112L127 111z"/>
<path style="fill:#605f5c; stroke:none;" d="M133 111L134 112L133 111z"/>
<path style="fill:#ede2d0; stroke:none;" d="M75 112L76 113L75 112z"/>
<path style="fill:#605f5c; stroke:none;" d="M81 112L82 113L81 112M103 112L103 121L104 121L103 112z"/>
<path style="fill:#ede2d0; stroke:none;" d="M118 112L119 113L118 112z"/>
<path style="fill:#605f5c; stroke:none;" d="M124 112L125 113L124 112z"/>
<path style="fill:#ede2d0; stroke:none;" d="M132 112L133 113L132 112z"/>
<path style="fill:#605f5c; stroke:none;" d="M75 113L76 114L75 113M118 113L119 114L118 113z"/>
<path style="fill:#ede2d0; stroke:none;" d="M126 113L127 114L126 113z"/>
<path style="fill:#a8a6a2; stroke:none;" d="M132.333 113.667L132.667 114.333L132.333 113.667z"/>
<path style="fill:#ede2d0; stroke:none;" d="M74 114L75 115L74 114z"/>
<path style="fill:#605f5c; stroke:none;" d="M80 114L81 115L80 114M93 114L93 122L94 122L93 114z"/>
<path style="fill:#a8a6a2; stroke:none;" d="M117 114L118 115L117 114z"/>
<path style="fill:#605f5c; stroke:none;" d="M123 114L124 115L123 114z"/>
<path style="fill:#a8a6a2; stroke:none;" d="M74 115L75 116L74 115z"/>
<path style="fill:#ede2d0; stroke:none;" d="M82 115L83 116L82 115M116 115L117 116L116 115z"/>
<path style="fill:#605f5c; stroke:none;" d="M117 115L118 116L117 115z"/>
<path style="fill:#ede2d0; stroke:none;" d="M125 115L126 116L125 115z"/>
<path style="fill:#605f5c; stroke:none;" d="M132 115L133 116L132 115M141 115L141 118L142 118L141 115z"/>
<path style="fill:#ede2d0; stroke:none;" d="M143 115L143 118L144 118L143 115M73 116L74 117L73 116z"/>
<path style="fill:#605f5c; stroke:none;" d="M79.3333 116.667L79.6667 117.333L79.3333 116.667z"/>
<path style="fill:#a8a6a2; stroke:none;" d="M116 116L117 117L116 116z"/>
<path style="fill:#605f5c; stroke:none;" d="M122 116L123 117L122 116z"/>
<path style="fill:#ede2d0; stroke:none;" d="M131.333 116.667L131.667 117.333L131.333 116.667z"/>
<path style="fill:#a8a6a2; stroke:none;" d="M73 117L74 118L73 117z"/>
<path style="fill:#ede2d0; stroke:none;" d="M81 117L80 121L81 121L81 117M115 117L116 118L115 117z"/>
<path style="fill:#605f5c; stroke:none;" d="M116 117L117 118L116 117z"/>
<path style="fill:#ede2d0; stroke:none;" d="M124 117L125 118L124 117M72 118L73 119L72 118z"/>
<path style="fill:#a8a6a2; stroke:none;" d="M115 118L116 119L115 118z"/>
<path style="fill:#605f5c; stroke:none;" d="M121 118L122 119L121 118z"/>
<path style="fill:#a8a6a2; stroke:none;" d="M131 118L132 119L131 118M72 119L73 120L72 119z"/>
<path style="fill:#605f5c; stroke:none;" d="M78 119L79 120L78 119z"/>
<path style="fill:#ede2d0; stroke:none;" d="M123 119L119 129L120 129L123 119z"/>
<path style="fill:#605f5c; stroke:none;" d="M131.333 119.667L131.667 120.333L131.333 119.667z"/>
<path style="fill:#ede2d0; stroke:none;" d="M142 119L142 123L143 123L142 119z"/>
<path style="fill:#605f5c; stroke:none;" d="M72 120L73 121L72 120z"/>
<path style="fill:#a8a6a2; stroke:none;" d="M114 120L115 121L114 120z"/>
<path style="fill:#605f5c; stroke:none;" d="M120 120L121 121L120 120M140 120L140 123L141 123L140 120z"/>
<path style="fill:#ede2d0; stroke:none;" d="M71 121L72 122L71 121z"/>
<path style="fill:#605f5c; stroke:none;" d="M77.3333 121.667L77.6667 122.333L77.3333 121.667z"/>
<path style="fill:#ede2d0; stroke:none;" d="M113 121L114 122L113 121z"/>
<path style="fill:#605f5c; stroke:none;" d="M114 121L115 122L114 121z"/>
<path style="fill:#ede2d0; stroke:none;" d="M130 121L131 122L130 121z"/>
<path style="fill:#605f5c; stroke:none;" d="M71 122L72 123L71 122z"/>
<path style="fill:#ede2d0; stroke:none;" d="M79 122L78 126L79 126L79 122M92 122L92 130L93 130L92 122z"/>
<path style="fill:#a8a6a2; stroke:none;" d="M113 122L114 123L113 122z"/>
<path style="fill:#605f5c; stroke:none;" d="M119.333 122.667L119.667 123.333L119.333 122.667z"/>
<path style="fill:#a8a6a2; stroke:none;" d="M130 122L131 123L130 122z"/>
<path style="fill:#ede2d0; stroke:none;" d="M70 123L71 124L70 123M104 123L104 134L105 134L104 123M112 123L113 124L112 123z"/>
<path style="fill:#605f5c; stroke:none;" d="M130.333 123.667L130.667 124.333L130.333 123.667M70 124L71 125L70 124M76 124L77 125L76 124z"/>
<path style="fill:#a8a6a2; stroke:none;" d="M112 124L113 125L112 124z"/>
<path style="fill:#ede2d0; stroke:none;" d="M69 125L70 126L69 125z"/>
<path style="fill:#605f5c; stroke:none;" d="M112 125L113 126L112 125M118 125L119 126L118 125z"/>
<path style="fill:#ede2d0; stroke:none;" d="M129 125L130 126L129 125M141 125L141 129L142 129L141 125z"/>
<path style="fill:#a8a6a2; stroke:none;" d="M69 126L70 127L69 126z"/>
<path style="fill:#605f5c; stroke:none;" d="M75 126L76 127L75 126z"/>
<path style="fill:#a8a6a2; stroke:none;" d="M111 126L112 127L111 126M129.333 126.667L129.667 127.333L129.333 126.667z"/>
<path style="fill:#605f5c; stroke:none;" d="M139 126L139 129L140 129L139 126z"/>
<path style="fill:#ede2d0; stroke:none;" d="M68 127L69 128L68 127M77 127L76 131L77 131L77 127z"/>
<path style="fill:#605f5c; stroke:none;" d="M111 127L112 128L111 127M117 127L118 128L117 127z"/>
<path style="fill:#a8a6a2; stroke:none;" d="M68 128L69 129L68 128z"/>
<path style="fill:#605f5c; stroke:none;" d="M102 128L102 137L103 137L102 128z"/>
<path style="fill:#a8a6a2; stroke:none;" d="M110 128L111 129L110 128z"/>
<path style="fill:#605f5c; stroke:none;" d="M129.333 128.667L129.667 129.333L129.333 128.667M68 129L69 130L68 129M74 129L75 130L74 129M110 129L111 130L110 129M116 129L117 130L116 129z"/>
<path style="fill:#ede2d0; stroke:none;" d="M128.333 129.667L128.667 130.333L128.333 129.667z"/>
<path style="fill:#a8a6a2; stroke:none;" d="M67 130L68 131L67 130M92 130L92 136L93 136L92 130z"/>
<path style="fill:#ede2d0; stroke:none;" d="M109 130L110 131L109 130M118 130L119 131L118 130z"/>
<path style="fill:#605f5c; stroke:none;" d="M67 131L68 132L67 131M73 131L74 132L73 131M109 131L110 132L109 131M115 131L116 132L115 131z"/>
<path style="fill:#a8a6a2; stroke:none;" d="M128.333 131.667L128.667 132.333L128.333 131.667z"/>
<path style="fill:#605f5c; stroke:none;" d="M138 131L138 135L139 135L138 131z"/>
<path style="fill:#ede2d0; stroke:none;" d="M140 131L140 135L141 135L140 131M66 132L67 133L66 132M75 132L76 133L75 132M108 132L109 133L108 132M117 132L118 133L117 132z"/>
<path style="fill:#605f5c; stroke:none;" d="M66 133L67 134L66 133M72 133L73 134L72 133z"/>
<path style="fill:#a8a6a2; stroke:none;" d="M108 133L109 134L108 133z"/>
<path style="fill:#605f5c; stroke:none;" d="M114.333 133.667L114.667 134.333L114.333 133.667M128 133L129 134L128 133z"/>
<path style="fill:#ede2d0; stroke:none;" d="M65 134L66 135L65 134M74 134L73 138L74 138L74 134M107 134L108 135L107 134M116 134L115 138L116 138L116 134M127.333 134.667L127.667 135.333L127.333 134.667z"/>
<path style="fill:#605f5c; stroke:none;" d="M65 135L66 136L65 135z"/>
<path style="fill:#a8a6a2; stroke:none;" d="M107 135L108 136L107 135z"/>
<path style="fill:#ede2d0; stroke:none;" d="M64 136L65 137L64 136z"/>
<path style="fill:#605f5c; stroke:none;" d="M71 136L72 137L71 136M92 136L92 144L93 144L92 136M107 136L108 137L107 136M113 136L114 137L113 136z"/>
<path style="fill:#a8a6a2; stroke:none;" d="M127.333 136.667L127.667 137.333L127.333 136.667M64 137L65 138L64 137z"/>
<path style="fill:#ede2d0; stroke:none;" d="M106 137L107 138L106 137M139 137L139 142L140 142L139 137M63 138L64 139L63 138z"/>
<path style="fill:#605f5c; stroke:none;" d="M70 138L71 139L70 138M106 138L107 139L106 138M112 138L113 139L112 138M127.333 138.667L127.667 139.333L127.333 138.667M137 138L137 141L138 141L137 138z"/>
<path style="fill:#a8a6a2; stroke:none;" d="M63 139L64 140L63 139z"/>
<path style="fill:#ede2d0; stroke:none;" d="M72 139L71 143L72 143L72 139M103 139L103 145L104 145L103 139M105 139L106 140L105 139M114 139L115 140L114 139z"/>
<path style="fill:#605f5c; stroke:none;" d="M63 140L64 141L63 140M69 140L70 141L69 140z"/>
<path style="fill:#a8a6a2; stroke:none;" d="M105 140L106 141L105 140z"/>
<path style="fill:#605f5c; stroke:none;" d="M111 140L112 141L111 140z"/>
<path style="fill:#ede2d0; stroke:none;" d="M126.333 140.667L126.667 141.333L126.333 140.667z"/>
<path style="fill:#a8a6a2; stroke:none;" d="M62 141L63 142L62 141z"/>
<path style="fill:#605f5c; stroke:none;" d="M105 141L106 142L105 141z"/>
<path style="fill:#ede2d0; stroke:none;" d="M113 141L114 142L113 141M61.3333 142.667L61.6667 143.333L61.3333 142.667z"/>
<path style="fill:#605f5c; stroke:none;" d="M62 142L63 143L62 142z"/>
<path style="fill:#a8a6a2; stroke:none;" d="M126.333 142.667L126.667 143.333L126.333 142.667z"/>
<path style="fill:#605f5c; stroke:none;" d="M68 143L69 144L68 143M101 143L101 154L102 154L101 143z"/>
<path style="fill:#a8a6a2; stroke:none;" d="M104 143L105 144L104 143z"/>
<path style="fill:#605f5c; stroke:none;" d="M110 143L111 144L110 143z"/>
<path style="fill:#ede2d0; stroke:none;" d="M112.333 143.667L112.667 144.333L112.333 143.667M138 143L138 148L139 148L138 143z"/>
<path style="fill:#605f5c; stroke:none;" d="M61 144L62 145L61 144z"/>
<path style="fill:#ede2d0; stroke:none;" d="M70 144L68 150L69 150L70 144z"/>
<path style="fill:#605f5c; stroke:none;" d="M104 144L105 145L104 144M126.333 144.667L126.667 145.333L126.333 144.667M136 144L136 148L137 148L136 144z"/>
<path style="fill:#ede2d0; stroke:none;" d="M60 145L61 146L60 145z"/>
<path style="fill:#605f5c; stroke:none;" d="M67 145L68 146L67 145M109 145L110 146L109 145z"/>
<path style="fill:#a8a6a2; stroke:none;" d="M60 146L61 147L60 146z"/>
<path style="fill:#605f5c; stroke:none;" d="M103.333 146.667L103.667 147.333L103.333 146.667z"/>
<path style="fill:#ede2d0; stroke:none;" d="M111 146L112 147L111 146M125 146L125 149L126 149L125 146M59 147L60 148L59 147z"/>
<path style="fill:#605f5c; stroke:none;" d="M66.3333 147.667L66.6667 148.333L66.3333 147.667z"/>
<path style="fill:#ede2d0; stroke:none;" d="M91 147L91 155L92 155L91 147z"/>
<path style="fill:#605f5c; stroke:none;" d="M108.333 147.667L108.667 148.333L108.333 147.667z"/>
<path style="fill:#a8a6a2; stroke:none;" d="M59 148L60 149L59 148z"/>
<path style="fill:#ede2d0; stroke:none;" d="M110.333 148.667L110.667 149.333L110.333 148.667M58 149L59 150L58 149z"/>
<path style="fill:#a8a6a2; stroke:none;" d="M125 149L125 152L126 152L125 149M58 150L59 151L58 150z"/>
<path style="fill:#605f5c; stroke:none;" d="M65 150L66 151L65 150M107 150L108 151L107 150z"/>
<path style="fill:#ede2d0; stroke:none;" d="M137 150L137 156L138 156L137 150z"/>
<path style="fill:#605f5c; stroke:none;" d="M58 151L59 152L58 151z"/>
<path style="fill:#ede2d0; stroke:none;" d="M67 151L68 152L67 151M109 151L110 152L109 151z"/>
<path style="fill:#a8a6a2; stroke:none;" d="M57 152L58 153L57 152z"/>
<path style="fill:#605f5c; stroke:none;" d="M64 152L65 153L64 152M106.333 152.667L106.667 153.333L106.333 152.667M125 152L125 156L126 156L125 152M135 152L135 157L136 157L135 152M57 153L58 154L57 153z"/>
<path style="fill:#ede2d0; stroke:none;" d="M66 153L64 159L65 159L66 153M108.333 153.667L108.667 154.333L108.333 153.667M56 154L57 155L56 154z"/>
<path style="fill:#605f5c; stroke:none;" d="M63.3333 154.667L63.6667 155.333L63.3333 154.667M56 155L57 156L56 155M105 155L106 156L105 155z"/>
<path style="fill:#ede2d0; stroke:none;" d="M54.6667 156.333L55.3333 156.667L54.6667 156.333M107 156L108 157L107 156M124 156L124 172L125 172L124 156z"/>
<path style="fill:#605f5c; stroke:none;" d="M55 157L56 158L55 157M62 157L63 158L62 157M92 157L92 161L93 161L92 157M104.333 157.667L104.667 158.333L104.333 157.667z"/>
<path style="fill:#ede2d0; stroke:none;" d="M54 158L53 161L54 161L54 158M106 158L105 162L106 162L106 158z"/>
<path style="fill:#a8a6a2; stroke:none;" d="M54 159L55 160L54 159z"/>
<path style="fill:#605f5c; stroke:none;" d="M61 159L62 160L61 159z"/>
<path style="fill:#ede2d0; stroke:none;" d="M136 159L137 181L138 181L136 159M63 160L64 161L63 160z"/>
<path style="fill:#605f5c; stroke:none;" d="M103 160L104 161L103 160z"/>
<path style="fill:#a8a6a2; stroke:none;" d="M53 161L54 162L53 161z"/>
<path style="fill:#605f5c; stroke:none;" d="M60 161L61 162L60 161z"/>
<path style="fill:#a8a6a2; stroke:none;" d="M92.3333 161.667L92.6667 162.333L92.3333 161.667z"/>
<path style="fill:#605f5c; stroke:none;" d="M53 162L54 163L53 162z"/>
<path style="fill:#ede2d0; stroke:none;" d="M62 162L58 171L59 171L62 162z"/>
<path style="fill:#605f5c; stroke:none;" d="M134 162L134 175L135 175L134 162z"/>
<path style="fill:#a8a6a2; stroke:none;" d="M52 163L53 164L52 163z"/>
<path style="fill:#605f5c; stroke:none;" d="M59 163L60 164L59 163z"/>
<path style="fill:#ede2d0; stroke:none;" d="M92.3333 163.667L92.6667 164.333L92.3333 163.667z"/>
<path style="fill:#605f5c; stroke:none;" d="M102 163L103 164L102 163z"/>
<path style="fill:#ede2d0; stroke:none;" d="M104.333 163.667L104.667 164.333L104.333 163.667z"/>
<path style="fill:#605f5c; stroke:none;" d="M52 164L53 165L52 164M93 164L94 165L93 164z"/>
<path style="fill:#ede2d0; stroke:none;" d="M51 165L52 166L51 165z"/>
<path style="fill:#605f5c; stroke:none;" d="M58 165L59 166L58 165z"/>
<path style="fill:#a8a6a2; stroke:none;" d="M93 165L94 166L93 165z"/>
<path style="fill:#605f5c; stroke:none;" d="M51 166L52 167L51 166z"/>
<path style="fill:#ede2d0; stroke:none;" d="M92.6667 166.333L93.3333 166.667L92.6667 166.333z"/>
<path style="fill:#605f5c; stroke:none;" d="M101 166L102 167L101 166z"/>
<path style="fill:#ede2d0; stroke:none;" d="M103.333 166.667L103.667 167.333L103.333 166.667M50 167L51 168L50 167z"/>
<path style="fill:#605f5c; stroke:none;" d="M57 167L58 168L57 167z"/>
<path style="fill:#a8a6a2; stroke:none;" d="M94 167L95 168L94 167z"/>
<path style="fill:#605f5c; stroke:none;" d="M50 168L51 169L50 168M95 168L96 169L95 168M100 168L97 169L97 170L101 169L100 168z"/>
<path style="fill:#ede2d0; stroke:none;" d="M49 169L50 170L49 169z"/>
<path style="fill:#605f5c; stroke:none;" d="M56 169L57 170L56 169z"/>
<path style="fill:#a8a6a2; stroke:none;" d="M96 169L97 170L96 169z"/>
<path style="fill:#ede2d0; stroke:none;" d="M102 169L100 172L102 169z"/>
<path style="fill:#a8a6a2; stroke:none;" d="M49 170L50 171L49 170z"/>
<path style="fill:#ede2d0; stroke:none;" d="M97 170L98 171L97 170M48 171L49 172L48 171z"/>
<path style="fill:#605f5c; stroke:none;" d="M55 171L56 172L55 171z"/>
<path style="fill:#a8a6a2; stroke:none;" d="M48 172L49 173L48 172z"/>
<path style="fill:#ede2d0; stroke:none;" d="M57 172L58 173L57 172z"/>
<path style="fill:#605f5c; stroke:none;" d="M125.333 172.667L125.667 173.333L125.333 172.667M48 173L49 174L48 173z"/>
<path style="fill:#a8a6a2; stroke:none;" d="M47 174L48 175L47 174z"/>
<path style="fill:#605f5c; stroke:none;" d="M53 174L54 175L53 174z"/>
<path style="fill:#ede2d0; stroke:none;" d="M56 174L49 183C52.544 181.065 56.0083 178.305 56 174z"/>
<path style="fill:#a8a6a2; stroke:none;" d="M125.333 174.667L125.667 175.333L125.333 174.667z"/>
<path style="fill:#605f5c; stroke:none;" d="M47 175L48 176L47 175z"/>
<path style="fill:#ede2d0; stroke:none;" d="M46 176L47 177L46 176M125 176L126 177L125 176z"/>
<path style="fill:#605f5c; stroke:none;" d="M46 177L47 178L46 177M51 177L48 181L51 177z"/>
<path style="fill:#a8a6a2; stroke:none;" d="M126 177L127 178L126 177z"/>
<path style="fill:#605f5c; stroke:none;" d="M135.333 177.667L135.667 178.333L135.333 177.667z"/>
<path style="fill:#ede2d0; stroke:none;" d="M45 178L46 179L45 178z"/>
<path style="fill:#605f5c; stroke:none;" d="M127 178L130 181L127 178M45 179L46 180L45 179z"/>
<path style="fill:#ede2d0; stroke:none;" d="M127 179L130 182L127 179z"/>
<path style="fill:#a8a6a2; stroke:none;" d="M136 179L137 180L136 179z"/>
<path style="fill:#ede2d0; stroke:none;" d="M44 180L45 181L44 180z"/>
<path style="fill:#605f5c; stroke:none;" d="M136.333 180.667L136.667 181.333L136.333 180.667z"/>
<path style="fill:#a8a6a2; stroke:none;" d="M44 181L45 182L44 181z"/>
<path style="fill:#605f5c; stroke:none;" d="M45.6667 181.333L46.3333 181.667L45.6667 181.333z"/>
<path style="fill:#a8a6a2; stroke:none;" d="M130 181L131 182L130 181z"/>
<path style="fill:#605f5c; stroke:none;" d="M131 181L131 182L134 182L131 181z"/>
<path style="fill:#a8a6a2; stroke:none;" d="M137 181L133 182L133 183L137 181z"/>
<path style="fill:#ede2d0; stroke:none;" d="M45 182L48 184L45 182M131 182L131 183L139 183L139 182L131 182z"/>
</svg>
